<mxfile host="app.diagrams.net" modified="2022-04-12T12:24:19.789Z" agent="5.0 (Windows NT 10.0; Win64; x64) AppleWebKit/537.36 (KHTML, like Gecko) Chrome/100.0.4896.75 Safari/537.36" etag="Fvw1WYZsCQQ3FyshbJcH" version="17.4.3" type="github">
  <diagram id="w4uHxJY5UsQgHHnN7Xe6" name="第 1 页">
    <mxGraphModel dx="1609" dy="1605" grid="1" gridSize="10" guides="1" tooltips="1" connect="1" arrows="1" fold="1" page="1" pageScale="1" pageWidth="827" pageHeight="1169" math="0" shadow="0">
      <root>
        <mxCell id="0" />
        <mxCell id="1" parent="0" />
        <mxCell id="CFEKlHjBmbo5Hejxvnzg-6" value="" style="edgeStyle=orthogonalEdgeStyle;rounded=0;orthogonalLoop=1;jettySize=auto;html=1;" edge="1" parent="1" source="CFEKlHjBmbo5Hejxvnzg-1" target="CFEKlHjBmbo5Hejxvnzg-5">
          <mxGeometry relative="1" as="geometry" />
        </mxCell>
        <mxCell id="CFEKlHjBmbo5Hejxvnzg-7" value="实例化非懒加载的bean" style="edgeLabel;html=1;align=center;verticalAlign=middle;resizable=0;points=[];" vertex="1" connectable="0" parent="CFEKlHjBmbo5Hejxvnzg-6">
          <mxGeometry x="-0.26" y="3" relative="1" as="geometry">
            <mxPoint x="-3" y="13" as="offset" />
          </mxGeometry>
        </mxCell>
        <mxCell id="CFEKlHjBmbo5Hejxvnzg-1" value="AbstractApplicationContext#refresh" style="rounded=0;whiteSpace=wrap;html=1;fillColor=#f8cecc;strokeColor=#b85450;" vertex="1" parent="1">
          <mxGeometry x="20" y="70" width="210" height="60" as="geometry" />
        </mxCell>
        <mxCell id="CFEKlHjBmbo5Hejxvnzg-3" style="edgeStyle=orthogonalEdgeStyle;rounded=0;orthogonalLoop=1;jettySize=auto;html=1;entryX=0.5;entryY=0;entryDx=0;entryDy=0;" edge="1" parent="1" source="CFEKlHjBmbo5Hejxvnzg-2" target="CFEKlHjBmbo5Hejxvnzg-1">
          <mxGeometry relative="1" as="geometry" />
        </mxCell>
        <mxCell id="CFEKlHjBmbo5Hejxvnzg-2" value="容器启动" style="ellipse;whiteSpace=wrap;html=1;fillColor=#ffe6cc;strokeColor=#d79b00;" vertex="1" parent="1">
          <mxGeometry x="65" y="-60" width="120" height="80" as="geometry" />
        </mxCell>
        <mxCell id="CFEKlHjBmbo5Hejxvnzg-4" value="非常重要的方法" style="text;html=1;strokeColor=none;fillColor=none;align=center;verticalAlign=middle;whiteSpace=wrap;rounded=0;" vertex="1" parent="1">
          <mxGeometry x="-140" y="85" width="150" height="30" as="geometry" />
        </mxCell>
        <mxCell id="CFEKlHjBmbo5Hejxvnzg-9" value="" style="edgeStyle=orthogonalEdgeStyle;rounded=0;orthogonalLoop=1;jettySize=auto;html=1;" edge="1" parent="1" source="CFEKlHjBmbo5Hejxvnzg-5" target="CFEKlHjBmbo5Hejxvnzg-8">
          <mxGeometry relative="1" as="geometry" />
        </mxCell>
        <mxCell id="CFEKlHjBmbo5Hejxvnzg-10" value="预实例化单例" style="edgeLabel;html=1;align=center;verticalAlign=middle;resizable=0;points=[];" vertex="1" connectable="0" parent="CFEKlHjBmbo5Hejxvnzg-9">
          <mxGeometry x="-0.25" relative="1" as="geometry">
            <mxPoint as="offset" />
          </mxGeometry>
        </mxCell>
        <mxCell id="CFEKlHjBmbo5Hejxvnzg-5" value="finishBeanFactoryInitialization" style="whiteSpace=wrap;html=1;rounded=0;fillColor=#f8cecc;strokeColor=#b85450;" vertex="1" parent="1">
          <mxGeometry x="42.5" y="230" width="165" height="60" as="geometry" />
        </mxCell>
        <mxCell id="CFEKlHjBmbo5Hejxvnzg-8" value="DefaultListableBeanFactory#preInstantiateSingletons" style="whiteSpace=wrap;html=1;fillColor=#f8cecc;strokeColor=#b85450;rounded=0;" vertex="1" parent="1">
          <mxGeometry x="-27.5" y="370" width="305" height="60" as="geometry" />
        </mxCell>
      </root>
    </mxGraphModel>
  </diagram>
</mxfile>
